Coordinates
version=1
nRows=7
nColumns=40
inDegrees=yes

Units are S.I. units (second, meters, Newtons, ...)
Angles are in degrees.

endheader
time	pelvis_tilt	pelvis_list	pelvis_rotation	pelvis_tx	pelvis_ty	pelvis_tz	hip_flexion_r	hip_adduction_r	hip_rotation_r	knee_angle_r	knee_angle_r_beta	ankle_angle_r	subtalar_angle_r	mtp_angle_r	hip_flexion_l	hip_adduction_l	hip_rotation_l	knee_angle_l	knee_angle_l_beta	ankle_angle_l	subtalar_angle_l	mtp_angle_l	lumbar_extension	lumbar_bending	lumbar_rotation	arm_flex_r	arm_add_r	arm_rot_r	elbow_flex_r	pro_sup_r	wrist_flex_r	wrist_dev_r	arm_flex_l	arm_add_l	arm_rot_l	elbow_flex_l	pro_sup_l	wrist_flex_l	wrist_dev_l
     28.42664286	     -6.34473087	     -5.76587924	      4.56935114	      1.03201381	      0.91630789	      0.44381673	      0.53155812	      4.39654018	    -16.55614290	     10.18571833	     10.18571833	     17.86620036	      2.89624001	     -1.12156569	     33.55458968	     -6.34863792	     -1.50483907	     21.25248899	     21.25248899	      2.89216940	    -12.39916331	      7.08340349	     -9.86534394	      5.41484966	      4.14260652	     48.71356562	    -14.42714935	      0.56555293	    116.47688825	     43.72844865	      0.00000000	      0.00000000	     -9.54670638	     -6.51592168	      6.17453604	     28.49858044	     45.09757711	      0.00000000	      0.00000000
     28.43828571	     -6.36790970	     -5.71446033	      4.48191822	      1.03361301	      0.91517973	      0.44195315	      0.01884758	      4.21228557	    -16.42816039	     10.35278841	     10.35278841	     18.20171276	      2.91277571	     -1.20323651	     33.15801330	     -6.26945452	     -1.60815485	     21.86522918	     21.86522918	      2.56983127	    -12.60001817	      7.03213849	     -9.60907511	      5.32146736	      4.14552021	     48.31905477	    -14.29865446	      0.73723072	    116.59221658	     43.72208847	      0.00000000	      0.00000000	     -9.50086516	     -6.53597605	      6.16333077	     28.53259972	     45.10093831	      0.00000000	      0.00000000
     28.44992857	     -6.42611411	     -5.70046365	      4.42802922	      1.03506445	      0.91411140	      0.44000078	     -0.32397813	      4.01975754	    -16.38159195	     10.75828907	     10.75828907	     18.62958996	      2.87872096	     -1.26357460	     32.89772974	     -6.19089025	     -1.56234469	     22.56031272	     22.56031272	      2.34409188	    -12.86312764	      6.70638680	     -9.36617550	      5.27896820	      4.10307154	     47.68007356	    -14.23577410	      0.99304841	    116.89464358	     43.71087582	      0.00000000	      0.00000000	     -9.42538874	     -6.60432332	      6.11874085	     28.64715023	     45.11042957	      0.00000000	      0.00000000
     28.46157143	     -6.40077188	     -5.57409283	      4.42613214	      1.03641487	      0.91357046	      0.43775341	     -0.73180567	      3.68870803	    -16.29856185	     11.18346690	     11.18346690	     18.80867233	      2.78089630	     -1.28536865	     32.55457676	     -5.95960175	     -1.46874564	     23.23743144	     23.23743144	      2.37516919	    -13.08495445	      6.41039151	     -9.26753319	      5.12656126	      3.99026629	     46.95068676	    -14.16829645	      1.17768426	    116.95325134	     43.70434495	      0.00000000	      0.00000000	     -9.12515254	     -6.65537904	      6.08835837	     28.79337264	     45.12049929	      0.00000000	      0.00000000
     28.47321429	     -6.53955125	     -5.49231340	      4.39116941	      1.03746698	      0.91295979	      0.43550122	     -0.59847542	      3.28260100	    -16.22006972	     12.28641154	     12.28641154	     19.18072978	      2.45274961	     -1.32725216	     32.45998961	     -5.76315077	     -1.36047543	     23.93660533	     23.93660533	      2.46372155	    -13.40545149	      5.77603003	     -9.00075513	      5.01456200	      4.01981139	     45.86900680	    -14.35569063	      1.34306069	    117.17187494	     43.70177030	      0.00000000	      0.00000000	     -8.78432228	     -6.72995460	      5.99123104	     29.01802067	     45.14275183	      0.00000000	      0.00000000
     28.48485714	     -6.42746077	     -5.38787587	      4.43468780	      1.03852322	      0.91318536	      0.43303811	     -0.85286998	      2.90818618	    -16.14729943	     13.12214970	     13.12214970	     19.25490626	      2.15484643	     -1.38126812	     32.06229283	     -5.52311233	     -1.18483742	     24.54659139	     24.54659139	      2.83991404	    -13.65619290	      5.37944393	     -9.09144243	      4.90868192	      3.87628090	     44.73961549	    -14.36230213	      1.47208949	    117.03249774	     43.70341317	      0.00000000	      0.00000000	     -8.28860022	     -6.84067617	      5.93646500	     29.17512523	     45.15992123	      0.00000000	      0.00000000
     28.49650000	     -6.52365004	     -5.25112168	      4.42151741	      1.03921541	      0.91339563	      0.43050906	     -0.47817416	      2.36488345	    -15.98795988	     14.69606663	     14.69606663	     19.38234230	      1.50834538	     -1.60940235	     31.87135140	     -5.24946688	     -1.11341309	     25.06986091	     25.06986091	      3.28876397	    -13.88032729	      4.95038466	     -8.97403976	      4.76630139	      3.89891806	     43.34686187	    -14.57103110	      1.46078515	    116.70264750	     43.71959792	      0.00000000	      0.00000000	     -7.65361087	     -6.91954795	      5.84175090	     29.32897585	     45.18633734	      0.00000000	      0.00000000
